                          <svg
                            width="14"
                            height="15"
                            viewBox="0 0 14 15"
                            fill="none"
                            xmlns="http://www.w3.org/2000/svg"
                          >
                            <path
                              d="M7.08752 10.125V11.35"
                              stroke="#FF9900"
                              stroke-width="0.875"
                              stroke-linecap="round"
                              stroke-linejoin="round"
                            />
                            <path
                              d="M4.17084 13.3333H10.0042V12.75C10.0042 12.1083 9.47917 11.5833 8.8375 11.5833H5.3375C4.69584 11.5833 4.17084 12.1083 4.17084 12.75V13.3333V13.3333Z"
                              stroke="#FF9900"
                              stroke-width="0.875"
                              stroke-miterlimit="10"
                            />
                            <path
                              d="M3.58752 13.3333H10.5875"
                              stroke="#FF9900"
                              stroke-width="0.875"
                              stroke-linecap="round"
                              stroke-linejoin="round"
                            />
                            <path
                              d="M7.00002 9.83332C4.74252 9.83332 2.91669 8.00749 2.91669 5.74999V3.99999C2.91669 2.71082 3.96085 1.66666 5.25002 1.66666H8.75002C10.0392 1.66666 11.0834 2.71082 11.0834 3.99999V5.74999C11.0834 8.00749 9.25752 9.83332 7.00002 9.83332Z"
                              fill="#FF9900"
                              fill-opacity="0.2"
                              stroke="#FF9900"
                              stroke-width="0.875"
                              stroke-linecap="round"
                              stroke-linejoin="round"
                            />
                            <path
                              d="M3.19084 7.29584C2.75334 7.15584 2.36834 6.89917 2.065 6.59584C1.54 6.01251 1.19 5.31251 1.19 4.49584C1.19 3.67917 1.83167 3.03751 2.64834 3.03751H3.0275C2.91084 3.30584 2.8525 3.60334 2.8525 3.91251V5.66251C2.8525 6.24584 2.975 6.79417 3.19084 7.29584Z"
                              stroke="#FF9900"
                              stroke-width="0.875"
                              stroke-linecap="round"
                              stroke-linejoin="round"
                            />
                            <path
                              d="M10.8091 7.29584C11.2466 7.15584 11.6316 6.89917 11.935 6.59584C12.46 6.01251 12.81 5.31251 12.81 4.49584C12.81 3.67917 12.1683 3.03751 11.3516 3.03751H10.9725C11.0891 3.30584 11.1475 3.60334 11.1475 3.91251V5.66251C11.1475 6.24584 11.025 6.79417 10.8091 7.29584Z"
                              stroke="#FF9900"
                              stroke-width="0.875"
                              stroke-linecap="round"
                              stroke-linejoin="round"
                            />
                          </svg>