                        <svg
                          viewBox="0 0 16 17"
                          fill="none"
                          xmlns="http://www.w3.org/2000/svg"
                          class="w-4 h-4 md:w-6 md:h-6"
                        >
                          <path
                            d="M2 4.62614C1.72386 4.62614 1.5 4.85 1.5 5.12614C1.5 5.40228 1.72386 5.62614 2 5.62614V4.62614ZM14 5.62614C14.2761 5.62614 14.5 5.40228 14.5 5.12614C14.5 4.85 14.2761 4.62614 14 4.62614V5.62614ZM3.33333 5.12614V4.62614H2.83333V5.12614H3.33333ZM12.6667 5.12614H13.1667V4.62614H12.6667V5.12614ZM12.2279 11.6579L12.7083 11.7966L12.2279 11.6579ZM9.1493 14.3413L9.23262 14.8343H9.23262L9.1493 14.3413ZM6.85067 14.3413L6.93399 13.8483L6.93398 13.8483L6.85067 14.3413ZM6.74551 14.3235L6.6622 14.8165H6.6622L6.74551 14.3235ZM3.7721 11.6579L3.29171 11.7966L3.7721 11.6579ZM9.25448 14.3235L9.17117 13.8305L9.25448 14.3235ZM5.22836 4.09734L5.68222 4.30712L5.22836 4.09734ZM5.87868 3.22516L5.54499 2.85279L5.54499 2.85279L5.87868 3.22516ZM6.85195 2.64239L7.02595 3.11114V3.11114L6.85195 2.64239ZM9.14805 2.64239L9.32205 2.17364V2.17364L9.14805 2.64239ZM10.7716 4.09734L11.2255 3.88755L10.7716 4.09734ZM2 5.62614H14V4.62614H2V5.62614ZM9.17117 13.8305L9.06599 13.8483L9.23262 14.8343L9.33779 14.8165L9.17117 13.8305ZM6.93398 13.8483L6.82882 13.8305L6.6622 14.8165L6.76736 14.8343L6.93398 13.8483ZM12.1667 5.12614V8.55496H13.1667V5.12614H12.1667ZM3.83333 8.55498V5.12614H2.83333V8.55498H3.83333ZM12.1667 8.55496C12.1667 9.55811 12.0255 10.5562 11.7475 11.5193L12.7083 11.7966C13.0123 10.7433 13.1667 9.65189 13.1667 8.55496H12.1667ZM9.06599 13.8483C8.36024 13.9676 7.63974 13.9676 6.93399 13.8483L6.76736 14.8343C7.58341 14.9722 8.41656 14.9722 9.23262 14.8343L9.06599 13.8483ZM6.82882 13.8305C5.60349 13.6235 4.60105 12.7267 4.25248 11.5193L3.29171 11.7966C3.74585 13.3698 5.05444 14.5449 6.6622 14.8165L6.82882 13.8305ZM4.25248 11.5193C3.97446 10.5562 3.83333 9.55812 3.83333 8.55498H2.83333C2.83333 9.65189 2.98765 10.7433 3.29171 11.7966L4.25248 11.5193ZM9.33779 14.8165C10.9455 14.5449 12.2541 13.3698 12.7083 11.7966L11.7475 11.5193C11.3989 12.7267 10.3965 13.6235 9.17117 13.8305L9.33779 14.8165ZM5.5 5.12614C5.5 4.84686 5.5613 4.56874 5.68222 4.30712L4.7745 3.88755C4.5939 4.27827 4.5 4.69933 4.5 5.12614H5.5ZM5.68222 4.30712C5.80324 4.0453 5.98238 3.80362 6.21237 3.59752L5.54499 2.85279C5.21783 3.14598 4.95501 3.49703 4.7745 3.88755L5.68222 4.30712ZM6.21237 3.59752C6.44246 3.39132 6.71851 3.22525 7.02595 3.11114L6.67796 2.17364C6.25744 2.32973 5.87205 2.55971 5.54499 2.85279L6.21237 3.59752ZM7.02595 3.11114C7.33341 2.99701 7.66454 2.93774 8 2.93774V1.93774C7.54753 1.93774 7.09844 2.01756 6.67796 2.17364L7.02595 3.11114ZM8 2.93774C8.33546 2.93774 8.66659 2.99701 8.97406 3.11114L9.32205 2.17364C8.90156 2.01756 8.45247 1.93774 8 1.93774V2.93774ZM8.97406 3.11114C9.28149 3.22525 9.55754 3.39132 9.78763 3.59752L10.455 2.8528C10.1279 2.55971 9.74256 2.32973 9.32205 2.17364L8.97406 3.11114ZM9.78763 3.59752C10.0176 3.80362 10.1968 4.0453 10.3178 4.30712L11.2255 3.88755C11.045 3.49703 10.7822 3.14598 10.455 2.8528L9.78763 3.59752ZM10.3178 4.30712C10.4387 4.56874 10.5 4.84686 10.5 5.12614H11.5C11.5 4.69933 11.4061 4.27827 11.2255 3.88755L10.3178 4.30712ZM3.33333 5.62614H12.6667V4.62614H3.33333V5.62614Z"
                            fill="#FF0000"
                            fill-opacity="0.8"
                          />
                          <path
                            d="M6.66663 8.43774V11.1044M9.33329 8.43774V11.1044"
                            stroke="#FF0000"
                            stroke-opacity="0.8"
                            stroke-linecap="round"
                          />
                        </svg>